<?xml version="1.0" standalone="no"?>
<!DOCTYPE svg PUBLIC "-//W3C//DTD SVG 20010904//EN"
 "http://www.w3.org/TR/2001/REC-SVG-20010904/DTD/svg10.dtd">
<svg version="1.0" xmlns="http://www.w3.org/2000/svg"
 width="409.600000pt" height="409.600000pt" viewBox="0 0 409.600000 409.600000"
 preserveAspectRatio="xMidYMid meet">
<metadata>
Created by potrace 1.13, written by Peter Selinger 2001-2015
</metadata>
<g transform="translate(0.000000,409.600000) scale(0.080000,-0.080000)"
fill="#000000" stroke="none">
<path d="M2540 4840 c0 -5 -9 -10 -20 -10 -11 0 -20 -7 -20 -15 0 -9 -9 -15
-25 -15 -16 0 -25 -6 -25 -15 0 -10 -10 -15 -30 -15 -20 0 -30 -5 -30 -15 0
-8 -7 -15 -15 -15 -8 0 -15 -4 -15 -9 0 -5 -11 -12 -25 -15 -14 -4 -25 -11
-25 -16 0 -6 -13 -10 -30 -10 -17 0 -30 -5 -30 -12 0 -7 -20 -22 -45 -33 -25
-11 -45 -25 -45 -32 0 -7 -11 -13 -25 -13 -14 0 -25 -4 -25 -9 0 -5 -13 -12
-30 -16 -16 -4 -30 -13 -30 -21 0 -8 -10 -14 -26 -14 -14 0 -23 -4 -19 -10 3
-5 -3 -10 -14 -10 -12 0 -21 -7 -21 -15 0 -10 -10 -15 -30 -15 -20 0 -30 -5
-30 -15 0 -9 -9 -15 -24 -15 -13 0 -26 -7 -30 -15 -3 -8 -18 -15 -33 -16 -15
0 -22 -3 -15 -6 19 -8 14 -19 -10 -20 -11 -1 -24 -6 -27 -12 -4 -5 -19 -13
-34 -16 -15 -4 -27 -13 -27 -21 0 -8 -10 -14 -25 -14 -14 0 -25 -4 -25 -10 0
-5 -9 -10 -20 -10 -11 0 -20 -4 -20 -10 0 -5 -11 -12 -25 -16 -14 -3 -25 -12
-25 -20 0 -8 -10 -14 -24 -14 -13 0 -26 -7 -30 -15 -3 -8 -9 -15 -13 -14 -25
4 -43 -3 -43 -16 0 -8 -9 -15 -20 -15 -11 0 -20 -4 -20 -10 0 -5 -9 -10 -21
-10 -12 0 -23 -8 -26 -18 -2 -10 -14 -19 -26 -19 -12 -1 -23 -7 -25 -13 -2 -5
-12 -10 -23 -10 -10 0 -19 -6 -19 -12 0 -9 -4 -8 -10 2 -8 13 -10 12 -10 -2 0
-11 -8 -18 -20 -18 -11 0 -20 -7 -20 -15 0 -9 -10 -15 -26 -15 -14 0 -23 -4
-20 -9 3 -5 -8 -11 -24 -15 -18 -3 -30 -12 -30 -21 0 -8 -9 -15 -20 -15 -11 0
-20 -4 -20 -9 0 -5 -12 -11 -28 -13 -15 -2 -26 -8 -25 -14 1 -7 -9 -15 -22
-18 -14 -4 -25 -11 -25 -16 0 -6 -13 -10 -30 -10 -16 0 -30 -4 -30 -10 0 -5
-6 -10 -13 -10 -7 0 -20 -9 -30 -20 -9 -11 -24 -20 -32 -20 -8 0 -15 -4 -15
-10 0 -5 -11 -10 -24 -10 -14 0 -26 -7 -28 -18 -3 -10 -15 -18 -29 -19 -13 -1
-25 -7 -27 -13 -2 -5 -13 -10 -24 -10 -14 0 -18 -5 -14 -15 4 -11 -2 -15 -24
-15 -20 0 -30 -5 -30 -15 0 -9 -9 -15 -25 -15 l-25 0 0 -1160 c0 -1024 2
-1160 15 -1160 8 0 15 -4 15 -10 0 -5 11 -12 25 -16 14 -3 25 -12 25 -20 0 -8
10 -14 26 -14 14 0 32 -7 40 -15 9 -8 24 -15 35 -15 12 0 17 -4 14 -11 -4 -6
2 -13 14 -16 11 -3 18 -9 15 -14 -3 -5 9 -9 25 -9 21 0 31 -5 31 -15 0 -9 12
-18 30 -21 17 -4 30 -10 30 -15 0 -5 6 -9 14 -9 8 0 17 -6 19 -12 4 -10 6 -10
6 1 1 7 13 -1 28 -18 15 -17 37 -31 49 -31 12 0 24 -4 26 -10 2 -5 14 -11 28
-13 14 -2 25 -10 25 -18 0 -8 12 -15 28 -17 15 -2 27 -8 27 -13 0 -5 7 -9 15
-9 8 0 15 -7 15 -15 0 -13 18 -20 43 -16 4 1 10 -6 13 -14 4 -8 17 -15 30 -15
13 0 24 -4 24 -9 0 -5 15 -13 33 -17 27 -6 29 -8 12 -14 -17 -6 -15 -8 13 -14
17 -4 32 -11 32 -16 0 -5 12 -10 27 -12 16 -2 27 -8 26 -15 -1 -6 11 -14 27
-18 17 -4 30 -11 30 -16 0 -5 7 -9 15 -9 8 0 15 -7 15 -15 0 -10 10 -15 30
-15 20 0 30 -5 30 -15 0 -9 9 -15 25 -15 14 0 25 -4 25 -9 0 -5 12 -12 26 -15
14 -4 36 -18 48 -31 14 -15 34 -25 50 -25 16 0 26 -5 26 -15 0 -9 9 -15 25
-15 16 0 25 -6 25 -15 0 -10 10 -15 30 -15 20 0 30 -5 30 -15 0 -8 7 -15 15
-15 8 0 15 -4 15 -9 0 -5 14 -12 30 -16 17 -4 28 -11 24 -16 -3 -5 9 -9 25 -9
20 0 31 -5 31 -14 0 -8 14 -17 30 -21 17 -4 30 -11 30 -16 0 -5 7 -9 15 -9 8
0 15 -7 15 -15 0 -9 9 -15 24 -15 13 0 26 -7 30 -15 3 -8 17 -15 31 -15 16 0
25 -6 25 -15 0 -8 7 -15 15 -15 8 0 15 -6 15 -12 0 -9 4 -8 10 2 6 10 10 11
10 3 0 -7 7 -13 15 -13 9 0 18 -7 21 -15 4 -8 17 -15 30 -15 15 0 24 -6 24
-15 0 -13 18 -20 43 -16 4 1 10 -6 13 -14 4 -8 12 -15 20 -15 8 0 14 -8 15
-17 0 -15 2 -15 9 2 7 17 9 17 9 3 1 -10 8 -18 16 -18 8 0 15 -4 15 -10 0 -5
14 -10 31 -10 17 0 28 4 24 10 -3 6 3 10 14 10 12 0 21 7 21 15 0 9 9 15 25
15 16 0 25 6 25 15 0 10 10 15 30 15 20 0 30 5 30 15 0 8 7 15 15 15 8 0 15 4
15 9 0 5 11 12 25 15 14 4 25 11 25 16 0 6 14 10 30 10 17 0 30 5 30 13 0 6
20 21 45 32 25 11 45 25 45 32 0 7 11 13 25 13 14 0 25 4 25 9 0 5 14 12 30
16 17 4 30 13 30 21 0 8 10 14 26 14 14 0 23 4 19 10 -3 6 3 10 14 10 12 0 21
7 21 15 0 10 10 15 30 15 20 0 30 5 30 15 0 9 9 15 24 15 13 0 26 7 30 15 3 8
18 15 33 16 15 0 22 3 16 6 -20 8 -15 19 9 20 11 1 24 6 27 12 4 5 19 13 34
16 15 4 27 13 27 21 0 8 10 14 25 14 14 0 25 5 25 10 0 6 9 10 20 10 11 0 20
4 20 10 0 5 11 12 25 16 14 3 25 12 25 20 0 8 10 14 24 14 13 0 26 7 30 15 3
8 9 15 13 14 25 -4 43 3 43 16 0 8 9 15 20 15 11 0 20 5 20 10 0 6 9 10 21 10
12 0 23 8 26 18 2 10 14 19 26 19 12 1 23 7 25 13 2 5 12 10 23 10 10 0 19 6
19 13 0 8 4 7 10 -3 8 -13 10 -12 10 3 0 10 8 17 20 17 11 0 20 7 20 15 0 9
10 15 26 15 14 0 23 4 20 9 -3 5 8 11 24 15 18 3 30 12 30 21 0 8 9 15 20 15
11 0 20 4 20 9 0 5 12 11 28 13 15 2 26 8 25 14 -1 7 9 15 22 18 14 4 25 11
25 16 0 6 14 10 30 10 17 0 30 5 30 10 0 6 6 10 13 10 7 0 20 9 30 20 9 11 24
20 32 20 8 0 15 5 15 10 0 6 11 10 24 10 14 0 26 7 28 18 3 10 15 18 29 19 13
1 25 7 27 13 2 5 13 10 24 10 14 0 18 5 14 15 -4 11 2 15 24 15 20 0 30 5 30
15 0 9 9 15 25 15 l25 0 0 1160 c0 1024 -2 1160 -15 1160 -8 0 -15 4 -15 10 0
5 -11 12 -25 16 -14 3 -25 12 -25 20 0 8 -10 14 -26 14 -14 0 -32 7 -40 15 -9
8 -24 15 -35 15 -12 0 -17 4 -14 11 4 6 -2 13 -14 16 -11 3 -18 9 -15 14 3 5
-9 9 -25 9 -21 0 -31 5 -31 15 0 9 -12 18 -30 22 -16 3 -30 9 -30 14 0 5 -6 9
-14 9 -8 0 -17 6 -19 13 -4 9 -6 9 -6 -2 -1 -7 -13 1 -28 18 -15 17 -37 31
-49 31 -12 0 -24 4 -26 10 -1 5 -14 11 -28 13 -14 2 -25 10 -25 18 0 8 -12 15
-27 17 -16 2 -28 8 -28 13 0 5 -7 9 -15 9 -8 0 -15 7 -15 15 0 13 -18 20 -43
16 -4 -1 -10 6 -13 14 -4 8 -17 15 -30 15 -13 0 -24 4 -24 9 0 5 -15 13 -32
17 -28 6 -30 8 -13 14 17 6 15 8 -12 14 -18 4 -33 11 -33 16 0 5 -12 10 -27
12 -16 2 -27 8 -26 15 1 6 -11 14 -27 18 -17 4 -30 11 -30 16 0 5 -7 9 -15 9
-8 0 -15 7 -15 15 0 10 -10 15 -30 15 -20 0 -30 5 -30 15 0 9 -9 15 -25 15
-14 0 -25 4 -25 9 0 5 -12 12 -26 15 -14 4 -36 18 -48 31 -14 15 -34 25 -50
25 -16 0 -26 5 -26 15 0 9 -9 15 -25 15 -16 0 -25 6 -25 15 0 10 -10 15 -30
15 -20 0 -30 5 -30 15 0 8 -7 15 -15 15 -8 0 -15 4 -15 9 0 5 -14 12 -30 16
-17 4 -28 11 -24 16 3 5 -9 9 -25 9 -20 0 -31 5 -31 14 0 8 -13 17 -30 21 -16
4 -30 11 -30 16 0 5 -7 9 -15 9 -8 0 -15 7 -15 15 0 9 -9 15 -24 15 -13 0 -26
7 -30 15 -3 8 -17 15 -31 15 -16 0 -25 6 -25 15 0 8 -7 15 -15 15 -8 0 -15 6
-15 13 0 8 -4 7 -10 -3 -6 -10 -10 -11 -10 -2 0 6 -7 12 -15 12 -9 0 -18 7
-21 15 -4 8 -17 15 -30 15 -15 0 -24 6 -24 15 0 13 -18 20 -43 16 -4 -1 -10 6
-13 14 -4 8 -12 15 -20 15 -8 0 -14 8 -15 18 0 14 -2 14 -9 -3 -7 -17 -9 -17
-9 -2 -1 9 -8 17 -16 17 -8 0 -15 5 -15 10 0 6 -11 10 -25 10 -14 0 -25 -4
-25 -10z m-674 -1215 c-4 -11 1 -15 19 -15 16 0 25 -6 25 -15 0 -10 10 -15 30
-15 20 0 30 -5 30 -15 0 -8 7 -15 15 -15 13 0 15 -48 15 -374 0 -332 2 -375
16 -380 20 -8 1068 -8 1088 0 14 5 16 48 16 375 0 319 2 370 15 375 8 4 15 12
15 20 0 9 11 14 30 14 20 0 30 5 30 15 0 9 9 15 25 15 15 0 24 5 22 13 -1 8
14 13 46 15 33 2 47 -1 47 -10 0 -7 20 -22 45 -33 25 -11 45 -25 45 -32 0 -8
12 -13 30 -13 l30 0 0 -990 0 -990 -30 0 c-20 0 -30 -5 -30 -15 0 -8 -5 -15
-11 -15 -6 0 -17 -7 -25 -15 -9 -8 -24 -15 -35 -15 -10 0 -19 -7 -19 -16 0
-12 -10 -14 -47 -12 -32 2 -47 7 -45 16 1 7 -8 12 -23 12 -16 0 -25 6 -25 15
0 10 -10 15 -30 15 -20 0 -30 5 -30 15 0 8 -7 15 -15 15 -13 0 -15 54 -15 425
l0 425 -560 0 -560 0 0 -420 c0 -365 -2 -421 -15 -426 -8 -4 -15 -12 -15 -20
0 -9 -11 -14 -30 -14 -20 0 -30 -5 -30 -15 0 -9 -9 -15 -25 -15 -18 0 -23 -4
-19 -15 5 -12 -4 -15 -45 -15 -34 0 -51 4 -51 13 0 6 -20 21 -45 32 -25 11
-45 25 -45 32 0 7 -7 14 -15 14 -8 1 -21 2 -27 3 -10 1 -14 207 -16 989 l-2
987 30 0 c20 0 30 5 30 15 0 8 5 15 11 15 6 0 17 7 25 15 9 8 24 15 35 15 10
0 19 7 19 15 0 11 12 15 51 15 41 0 50 -3 45 -15z"/>
</g>
</svg>
